<?xml version="1.0" encoding="utf-8"?>
<!DOCTYPE svg>
<svg version="1.1" xmlns="http://www.w3.org/2000/svg"
	 width="512px" height="512px" viewBox="0 0 512 512" style="enable-background:new 0 0 512 512;">
<g>
	<path fill="none" stroke-width="25px" stroke="#666666" d="M224,435.8V76.1c0-6.7-5.4-12.1-12.2-12.1h-71.6c-6.8,0-12.2,5.4-12.2,12.1v359.7c0,6.7,5.4,12.2,12.2,12.2h71.6
		C218.6,448,224,442.6,224,435.8z"/>
	<path fill="none" stroke-width="25px" stroke="#666666" d="M371.8,64h-71.6c-6.7,0-12.2,5.4-12.2,12.1v359.7c0,6.7,5.4,12.2,12.2,12.2h71.6c6.7,0,12.2-5.4,12.2-12.2V76.1
		C384,69.4,378.6,64,371.8,64z"/>
</g>
</svg>
